<svg width="358" height="606" viewBox="0 0 358 606" fill="red" xmlns="http://www.w3.org/2000/svg">
<g opacity="1">
<path fill-rule="evenodd" clip-rule="evenodd" d="M145.309 57.4709C145.385 57.4966 145.462 57.5225 145.538 57.5485C159.879 39.0041 160.975 23.9646 157.12 16.6103C155.88 14.0485 154.516 12.8286 151.912 12.8286C150.402 12.8238 148.91 13.1627 147.555 13.8187C146.933 14.1197 146.348 14.4836 145.808 14.9034C148.363 23.3336 148.693 32.2748 146.754 40.8799C145.991 44.2661 144.887 47.5533 143.467 50.696L145.309 57.4709ZM163.569 14.0485C167.134 22.3073 166.326 40.5339 151.649 60.457C149.508 63.906 147.845 67.6216 146.704 71.5053C137.495 68.4612 127.889 66.7357 118.181 66.3818C109.544 65.848 100.944 67.8887 93.5035 72.2373C92.8128 69.8125 91.949 67.4413 90.9195 65.141L90.8997 65.1619C71.4301 43.4479 70.066 22.9537 75.2744 14.0485C75.7234 11.6206 76.9999 9.41552 78.8934 7.79676C80.7869 6.17799 83.1846 5.2421 85.6913 5.14331C88.4973 4.93835 91.3072 5.4886 93.8195 6.73505C94.567 7.10591 95.2798 7.53424 95.9519 8.01469C99.4224 2.91445 103.593 0.0197378 107.764 0.0197378C110.632 -0.124128 113.484 0.518238 116.002 1.87522C117.543 2.70569 118.922 3.78382 120.085 5.05806C120.938 4.32888 121.872 3.68826 122.871 3.14954C125.382 1.79661 128.218 1.1367 131.078 1.2397C134.383 1.74352 137.475 3.15617 139.999 5.31464C141.328 6.45169 142.471 7.77129 143.396 9.22594C143.892 8.88034 144.409 8.56202 144.945 8.27301C147.456 6.92008 150.291 6.26018 153.152 6.36317C155.497 6.37299 157.777 7.12581 159.653 8.51008C161.53 9.89435 162.903 11.8364 163.569 14.0485ZM122.026 42.9485L127.833 53.4746L137.841 46.1301C144.122 31.4222 140.398 20.1649 138.891 16.3663C136.907 11.3648 132.442 7.46114 129.838 7.46114C128.328 7.45636 126.837 7.79522 125.481 8.45123C124.126 9.10717 122.944 10.0624 122.026 11.2424V42.9485ZM115.595 8.92496C114.933 8.32308 114.188 7.81189 113.379 7.40785C112.023 6.73029 110.525 6.37262 109.005 6.36317C106.4 6.36317 102.556 8.92494 99.9519 15.2684C97.8955 20.2774 93.442 31.6758 101.246 46.9409L108.499 51.8726L115.577 41.7264V8.92496H115.595ZM94.4722 49.4629C93.2064 46.5374 92.218 43.4882 91.5277 40.353C89.5471 31.3576 90.0984 22.0087 93.1111 13.3102C92.5079 12.8794 91.8547 12.5163 91.1634 12.2295C89.7879 11.6586 88.2979 11.4046 86.8074 11.4867C85.6923 11.6536 84.6353 12.0852 83.7278 12.7441C82.8203 13.403 82.0896 14.2694 81.5989 15.2684C78.0093 22.4446 78.8527 37.4915 92.7108 55.9399L94.4722 49.4629ZM192.215 353.788C201.498 370.328 208.861 387.841 214.165 405.999C236.983 477.119 238.347 573.368 238.347 573.368C237.804 575.522 236.675 577.49 235.079 579.059C233.484 580.628 231.484 581.74 229.294 582.274C144.472 598.01 91.0233 605.818 56.5485 605.818H44.1475C31.648 603.091 20.635 595.869 13.2691 585.567C11.3573 582.439 10.3696 578.848 10.4168 575.198C10.7753 570.133 12.5808 565.27 15.6253 561.17L23.3139 551.41C26.0421 548.727 33.4827 539.212 33.4827 539.212L84.3268 485.292L127.606 434.301C132.395 426.817 135.796 418.556 137.651 409.903C138.76 392.262 136.087 374.588 129.806 358.028C123.525 341.468 113.777 326.391 101.192 313.776C101.192 313.776 59.6488 341.833 42.7834 340.613C42.7834 340.613 36.3349 339.393 36.3349 321.461C36.3349 320.849 36.3654 320.333 36.3919 319.884C36.5348 317.464 36.5643 316.965 31.1265 313.776C25.6406 310.559 25.7192 309.107 25.8649 306.417C25.8904 305.945 25.9181 305.435 25.9181 304.87C25.9181 304.054 23.9895 302.831 22.2 301.696C21.0488 300.966 19.9551 300.272 19.4696 299.747C18.7031 298.918 18.8841 298.135 19.1341 297.053C19.2886 296.385 19.4696 295.602 19.4696 294.623C19.4696 293.961 19.6439 293.298 19.8122 292.658C20.2942 290.826 20.726 289.184 16.8654 288.28C16.1332 287.903 14.4795 287.477 12.4804 286.963C7.36926 285.648 0 283.752 0 280.595C0 279.2 2.2625 277.327 5.335 274.782C11.94 269.311 22.2883 260.741 21.9498 247.17C22.0693 245.627 22.0693 244.077 21.9498 242.534C21.9498 241.871 22.3527 241.568 22.3025 241.43C22.2604 241.314 21.8985 241.314 20.7097 241.314C18.1055 241.314 9.05273 239.972 6.44852 236.191C10.8076 238.506 15.8002 239.402 20.7097 238.752C18.6149 229.047 16.115 224.631 14.2736 221.377C12.7356 218.66 11.6569 216.754 11.6569 213.257C11.6569 209.23 12.2017 205.236 12.7203 201.435C13.1915 197.98 13.6411 194.684 13.6411 191.665C13.6411 188.761 12.2902 186.906 10.825 184.893C9.08902 182.508 7.19258 179.903 7.19258 175.074C7.19258 173.301 7.04017 171.068 6.8675 168.539C6.17299 158.366 5.15077 143.392 12.401 134.208C24.2419 119.899 40.3245 109.58 58.4087 104.686C64.8136 94.7321 73.6241 86.4925 84.0539 80.7027C94.4837 74.9129 106.208 71.7532 118.181 71.5054C153.201 71.5054 177.387 91.3364 195.912 106.526C198.641 108.764 201.248 110.901 203.748 112.86C207.593 116.641 227.062 96.2691 227.062 96.2691C239.007 87.3026 253.581 82.381 268.606 82.2404C291.077 83.876 312.204 93.3979 328.137 109.071C344.07 124.745 353.75 145.527 355.413 167.633C362.695 242.306 348.085 273.814 326.52 320.323C323.847 326.087 321.068 332.082 318.21 338.417C294.648 391.411 335.185 437.762 348.196 452.639C350.251 454.988 351.619 456.553 351.94 457.235C354.296 462.236 314.737 449.55 302.336 441.864C281.148 432.886 262.576 418.844 248.304 401.013C234.033 383.182 224.514 362.127 220.614 339.759C215.529 314.264 214.165 286.084 236.239 235.093C258.313 184.101 249.26 132.988 219.374 132.988C214.165 132.988 214.165 140.673 221.978 163.607C230.954 201.923 227.795 242.023 212.925 278.521C198.727 308.912 179.431 307.169 173.81 306.661C173.294 306.615 172.893 306.578 172.622 306.578C169.398 306.578 178.202 330 192.215 353.788Z" fill="black"/>
</g>
</svg>
